<svg width="24" height="12" viewBox="0 0 24 12" fill="none" xmlns="http://www.w3.org/2000/svg">
<path d="M23.8741 7.85432C23.9957 8.07251 24.0288 8.33153 23.9661 8.57481C23.9034 8.8181 23.7501 9.0259 23.5396 9.15282C23.4005 9.23985 23.2408 9.28522 23.0782 9.28387C22.9148 9.28538 22.7539 9.24206 22.6121 9.15833C22.4702 9.07461 22.3524 8.95349 22.2707 8.80735L20.1483 5.01906C18.9029 5.88423 17.5324 6.53966 16.088 6.96086L16.757 10.8802C16.7974 11.1295 16.7415 11.3852 16.6013 11.5924C16.4611 11.7995 16.2478 11.9416 16.0072 11.9881H15.8458C15.6286 11.9887 15.4181 11.9103 15.2514 11.7664C15.0847 11.6226 14.9725 11.4227 14.9345 11.2018L14.277 7.34207C13.5247 7.45791 12.7653 7.51763 12.0046 7.52076C11.2405 7.52113 10.4772 7.4654 9.7207 7.35398L9.06321 11.2137C9.0252 11.4346 8.91298 11.6345 8.7463 11.7783C8.57961 11.9222 8.36915 12.0007 8.15195 12H7.99046C7.74989 11.9535 7.53657 11.8115 7.39637 11.6043C7.25616 11.3971 7.20027 11.1414 7.24069 10.8921L7.92125 6.96086C6.47226 6.54237 5.09756 5.88679 3.84942 5.01906L1.71546 8.83118C1.63302 8.97399 1.51666 9.09271 1.37738 9.1761C1.2381 9.25949 1.08051 9.30478 0.919545 9.30769C0.757837 9.3071 0.599117 9.26264 0.459287 9.17875C0.319457 9.09487 0.203426 8.97451 0.122818 8.82973C0.0422108 8.68495 -0.000142885 8.52083 3.62158e-07 8.35382C0.000143609 8.18682 0.0427788 8.02278 0.123635 7.87815L2.37295 3.8516C1.58694 3.15543 0.864857 2.38576 0.215914 1.55242C0.139223 1.45585 0.0819117 1.34448 0.04732 1.22481C0.0127283 1.10513 0.00154832 0.979537 0.0144318 0.855352C0.0273153 0.731167 0.0640045 0.610872 0.122361 0.501479C0.180717 0.392087 0.259573 0.295784 0.354333 0.218185C0.447122 0.138313 0.55436 0.0782909 0.669813 0.0416078C0.785265 0.00492468 0.906627 -0.00768712 1.02684 0.00450646C1.14706 0.0167 1.26372 0.0534553 1.37006 0.112635C1.4764 0.171814 1.57028 0.252238 1.64625 0.349227C2.36829 1.27891 3.19284 2.11848 4.10319 2.85093H4.11472C6.36721 4.66557 9.14797 5.63966 12.0046 5.61471C15.3844 5.61471 17.9797 4.38768 19.883 2.86284H19.9061C20.8164 2.1304 21.641 1.29083 22.363 0.361139C22.4381 0.263275 22.5314 0.181835 22.6373 0.121566C22.7432 0.0612981 22.8597 0.0234071 22.98 0.0101015C23.1002 -0.00320406 23.2218 0.00834218 23.3377 0.0440672C23.4536 0.0797922 23.5614 0.138981 23.6549 0.218185C23.7497 0.295784 23.8285 0.392087 23.8869 0.501479C23.9452 0.610872 23.9819 0.731167 23.9948 0.855352C24.0077 0.979537 23.9965 1.10513 23.9619 1.22481C23.9273 1.34448 23.87 1.45585 23.7933 1.55242C23.1444 2.38576 22.4223 3.15543 21.6363 3.8516L23.8741 7.85432Z" fill="#333333"/>
</svg>
