<svg width="30" height="24" viewBox="0 0 30 24" fill="none" xmlns="http://www.w3.org/2000/svg">
<path d="M4.13443 14.4891C4.5938 13.6313 4.45318 12.5766 3.78287 11.8734C2.78443 10.8234 2.25005 9.5625 2.25005 8.25C2.25005 5.27344 5.24068 2.25 9.75005 2.25C14.2594 2.25 17.2501 5.27344 17.2501 8.25C17.2501 11.2266 14.2594 14.25 9.75005 14.25C9.13599 14.25 8.54068 14.1891 7.97818 14.0812C7.49068 13.9875 6.98443 14.0531 6.53912 14.2781C6.34693 14.3766 6.15005 14.4703 5.94849 14.5594C5.19849 14.8969 4.4063 15.1922 3.60943 15.4031C3.74068 15.1875 3.86255 14.9766 3.97974 14.7656C4.0313 14.6766 4.08287 14.5828 4.12974 14.4891H4.13443ZM5.41239e-05 8.25C5.41239e-05 10.2094 0.806304 12.0047 2.15162 13.4203C2.10943 13.5 2.06255 13.5844 2.02037 13.6594C1.53755 14.5219 0.975054 15.3703 0.304742 16.1016C-0.00463337 16.4297 -0.0843209 16.9078 0.0891166 17.3156C0.271929 17.7328 0.675054 18 1.12505 18C3.14068 18 5.17974 17.3766 6.87662 16.6078C7.10162 16.5047 7.32662 16.3969 7.54224 16.2891C8.25005 16.4297 8.99068 16.5 9.75005 16.5C15.136 16.5 19.5001 12.8062 19.5001 8.25C19.5001 3.69375 15.136 0 9.75005 0C4.36412 0 5.41239e-05 3.69375 5.41239e-05 8.25ZM20.2501 22.5C21.0094 22.5 21.7454 22.425 22.4579 22.2891C22.6735 22.3969 22.8985 22.5047 23.1235 22.6078C24.8204 23.3766 26.8594 24 28.8751 24C29.3251 24 29.7282 23.7328 29.9063 23.3203C30.0844 22.9078 30.0001 22.4297 29.6907 22.1063C29.0251 21.375 28.4626 20.5266 27.9751 19.6641C27.9329 19.5844 27.886 19.5047 27.8438 19.425C29.1938 18.0047 30.0001 16.2094 30.0001 14.25C30.0001 9.825 25.8797 6.21094 20.7094 6.00937C20.9016 6.72187 21.0001 7.47188 21.0001 8.25V8.27813C25.0876 8.59219 27.7501 11.4422 27.7501 14.25C27.7501 15.5625 27.2157 16.8234 26.2172 17.8688C25.5469 18.5719 25.4063 19.6313 25.8657 20.4844C25.9172 20.5781 25.9688 20.6719 26.0157 20.7609C26.1329 20.9719 26.2594 21.1828 26.386 21.3984C25.5891 21.1875 24.7969 20.8969 24.0469 20.5547C23.8454 20.4656 23.6485 20.3719 23.4563 20.2734C23.011 20.0484 22.5047 19.9828 22.0172 20.0766C21.4501 20.1891 20.8594 20.2453 20.2454 20.2453C17.3532 20.2453 15.0891 19.0031 13.8329 17.325C13.0829 17.5781 12.2954 17.7656 11.4891 17.8781C13.0782 20.6156 16.4063 22.5 20.2501 22.5Z" fill="#4273A6"/>
</svg>
