<svg width="33" height="25" viewBox="0 0 33 25" fill="none" xmlns="http://www.w3.org/2000/svg">
<path fill-rule="evenodd" clip-rule="evenodd" d="M30.2495 0.125C31.7675 0.125 33 1.3559 33 2.87555V22.1245C33 23.6425 31.7691 24.875 30.2495 24.875H2.75055C1.23255 24.875 0 23.6441 0 22.1245V2.87555C0 1.35755 1.2309 0.125 2.75055 0.125H30.2495ZM11.8272 14.6912L3.7257 22.697H29.0119L20.9979 14.7737L16.5 17.8873L11.8272 14.6912ZM30.756 8.0318L22.8426 13.5032L30.756 21.3176V8.0318ZM2.24565 8.13245V21.0618L9.97755 13.4207L2.24565 8.13245ZM30.223 2.30465H2.8017C2.65113 2.29759 2.50356 2.34835 2.3892 2.44655C2.33838 2.49206 2.29915 2.54903 2.27476 2.61273C2.25037 2.67644 2.24152 2.74504 2.24895 2.81285V5.48585L16.5 15.2324L30.7626 5.39015V2.92835C30.7642 2.70725 30.7131 2.5472 30.6108 2.44655C30.56 2.39712 30.4994 2.35895 30.4329 2.3345C30.3663 2.31005 30.2954 2.29988 30.2247 2.30465H30.223Z" fill="#4273A6"/>
</svg>
