<svg width="22" height="24" viewBox="0 0 22 24" fill="none" xmlns="http://www.w3.org/2000/svg">
<path d="M0.5 2.25C0.5 1.65326 0.737053 1.08097 1.15901 0.65901C1.58097 0.237053 2.15326 0 2.75 0H19.25C19.8467 0 20.419 0.237053 20.841 0.65901C21.2629 1.08097 21.5 1.65326 21.5 2.25V3.75C21.5 4.34674 21.2629 4.91903 20.841 5.34099C20.419 5.76295 19.8467 6 19.25 6H2.75C2.15326 6 1.58097 5.76295 1.15901 5.34099C0.737053 4.91903 0.5 4.34674 0.5 3.75V2.25ZM2.75 1.5C2.55109 1.5 2.36032 1.57902 2.21967 1.71967C2.07902 1.86032 2 2.05109 2 2.25V3.75C2 3.94891 2.07902 4.13968 2.21967 4.28033C2.36032 4.42098 2.55109 4.5 2.75 4.5H19.25C19.4489 4.5 19.6397 4.42098 19.7803 4.28033C19.921 4.13968 20 3.94891 20 3.75V2.25C20 2.05109 19.921 1.86032 19.7803 1.71967C19.6397 1.57902 19.4489 1.5 19.25 1.5H2.75ZM0.5 11.25C0.5 10.6533 0.737053 10.081 1.15901 9.65901C1.58097 9.23705 2.15326 9 2.75 9H19.25C19.8467 9 20.419 9.23705 20.841 9.65901C21.2629 10.081 21.5 10.6533 21.5 11.25V12.75C21.5 13.3467 21.2629 13.919 20.841 14.341C20.419 14.7629 19.8467 15 19.25 15H2.75C2.15326 15 1.58097 14.7629 1.15901 14.341C0.737053 13.919 0.5 13.3467 0.5 12.75V11.25ZM2.75 10.5C2.55109 10.5 2.36032 10.579 2.21967 10.7197C2.07902 10.8603 2 11.0511 2 11.25V12.75C2 12.9489 2.07902 13.1397 2.21967 13.2803C2.36032 13.421 2.55109 13.5 2.75 13.5H19.25C19.4489 13.5 19.6397 13.421 19.7803 13.2803C19.921 13.1397 20 12.9489 20 12.75V11.25C20 11.0511 19.921 10.8603 19.7803 10.7197C19.6397 10.579 19.4489 10.5 19.25 10.5H2.75ZM2.75 18C2.15326 18 1.58097 18.2371 1.15901 18.659C0.737053 19.081 0.5 19.6533 0.5 20.25V21.75C0.5 22.3467 0.737053 22.919 1.15901 23.341C1.58097 23.7629 2.15326 24 2.75 24H19.25C19.8467 24 20.419 23.7629 20.841 23.341C21.2629 22.919 21.5 22.3467 21.5 21.75V20.25C21.5 19.6533 21.2629 19.081 20.841 18.659C20.419 18.2371 19.8467 18 19.25 18H2.75ZM2 20.25C2 20.0511 2.07902 19.8603 2.21967 19.7197C2.36032 19.579 2.55109 19.5 2.75 19.5H19.25C19.4489 19.5 19.6397 19.579 19.7803 19.7197C19.921 19.8603 20 20.0511 20 20.25V21.75C20 21.9489 19.921 22.1397 19.7803 22.2803C19.6397 22.421 19.4489 22.5 19.25 22.5H2.75C2.55109 22.5 2.36032 22.421 2.21967 22.2803C2.07902 22.1397 2 21.9489 2 21.75V20.25Z" fill="#4273A6"/>
</svg>
