<svg width="26" height="26" viewBox="0 0 26 26" fill="none" xmlns="http://www.w3.org/2000/svg">
<path d="M24.25 0.5H1.75C1.41848 0.5 1.10054 0.631696 0.866116 0.866116C0.631696 1.10054 0.5 1.41848 0.5 1.75V24.25C0.5 24.5815 0.631696 24.8995 0.866116 25.1339C1.10054 25.3683 1.41848 25.5 1.75 25.5H24.25C24.5815 25.5 24.8995 25.3683 25.1339 25.1339C25.3683 24.8995 25.5 24.5815 25.5 24.25V1.75C25.5 1.41848 25.3683 1.10054 25.1339 0.866116C24.8995 0.631696 24.5815 0.5 24.25 0.5ZM8 23H3V18H8V23ZM8 15.5H3V10.5H8V15.5ZM8 8H3V3H8V8ZM15.5 23H10.5V18H15.5V23ZM15.5 15.5H10.5V10.5H15.5V15.5ZM15.5 8H10.5V3H15.5V8ZM23 23H18V18H23V23ZM23 15.5H18V10.5H23V15.5ZM23 8H18V3H23V8Z" fill="#4273a6"/>
</svg>
